<svg width="24" height="24" viewBox="0 0 24 24" fill="none" xmlns="http://www.w3.org/2000/svg">
<path d="M7.75 2H16.25C17.775 2 19.2375 2.6058 20.3159 3.68414C21.3942 4.76247 22 6.22501 22 7.75V16.25C22 17.775 21.3942 19.2375 20.3159 20.3159C19.2375 21.3942 17.775 22 16.25 22H7.75C6.22501 22 4.76247 21.3942 3.68414 20.3159C2.6058 19.2375 2 17.775 2 16.25V7.75C2 6.22501 2.6058 4.76247 3.68414 3.68414C4.76247 2.6058 6.22501 2 7.75 2ZM7.75 4C6.75544 4 5.80161 4.39509 5.09835 5.09835C4.39509 5.80161 4 6.75544 4 7.75V16.25C4 17.2446 4.39509 18.1984 5.09835 18.9017C5.80161 19.6049 6.75544 20 7.75 20H16.25C17.2446 20 18.1984 19.6049 18.9017 18.9017C19.6049 18.1984 20 17.2446 20 16.25V7.75C20 6.75544 19.6049 5.80161 18.9017 5.09835C18.1984 4.39509 17.2446 4 16.25 4H7.75ZM16.5 5.5C16.8315 5.5 17.1495 5.6317 17.3839 5.86612C17.6183 6.10054 17.75 6.41848 17.75 6.75C17.75 7.08152 17.6183 7.39946 17.3839 7.63388C17.1495 7.8683 16.8315 8 16.5 8C16.1685 8 15.8505 7.8683 15.6161 7.63388C15.3817 7.39946 15.25 7.08152 15.25 6.75C15.25 6.41848 15.3817 6.10054 15.6161 5.86612C15.8505 5.6317 16.1685 5.5 16.5 5.5ZM12 7C13.3261 7 14.5979 7.52678 15.5355 8.46447C16.4732 9.40215 17 10.6739 17 12C17 13.3261 16.4732 14.5979 15.5355 15.5355C14.5979 16.4732 13.3261 17 12 17C10.6739 17 9.40215 16.4732 8.46447 15.5355C7.52678 14.5979 7 13.3261 7 12C7 10.6739 7.52678 9.40215 8.46447 8.46447C9.40215 7.52678 10.6739 7 12 7ZM12 9C11.2044 9 10.4413 9.31607 9.87868 9.87868C9.31607 10.4413 9 11.2044 9 12C9 12.7956 9.31607 13.5587 9.87868 14.1213C10.4413 14.6839 11.2044 15 12 15C12.7956 15 13.5587 14.6839 14.1213 14.1213C14.6839 13.5587 15 12.7956 15 12C15 11.2044 14.6839 10.4413 14.1213 9.87868C13.5587 9.31607 12.7956 9 12 9Z" fill="white"/>
</svg>
