<svg width="20" height="18" viewBox="0 0 20 18" fill="none" xmlns="http://www.w3.org/2000/svg">
<path d="M2.47002 2.01896e-05C2.14434 0.00133341 1.82211 0.0667808 1.52173 0.192626C1.22134 0.318471 0.948685 0.502248 0.719324 0.733466C0.256109 1.20043 -0.00263198 1.83228 2.01896e-05 2.49002C0.00267235 3.14776 0.266501 3.7775 0.733467 4.24072C1.20043 4.70393 1.83228 4.96267 2.49002 4.96002C3.14776 4.95737 3.7775 4.69354 4.24072 4.22657C4.70393 3.75961 4.96267 3.12776 4.96002 2.47002C4.95737 1.81228 4.69354 1.18254 4.22657 0.719324C3.75961 0.256109 3.12776 -0.00263198 2.47002 2.01896e-05ZM0.49002 5.50002H4.49002V17.5H0.49002V5.50002ZM7.49002 5.50002H11.32V7.14002H11.37C11.9 6.13002 13.21 5.06002 15.16 5.06002C19.21 5.06002 19.96 7.72002 19.96 11.18V17.5H15.96V11.93C15.96 10.6 15.94 8.89002 14.11 8.89002C12.25 8.89002 11.96 10.34 11.96 11.84V17.5H7.96002L7.49002 5.50002Z" fill="white"/>
</svg>
